<?xml version="1.0" standalone="no"?>
<!DOCTYPE svg PUBLIC "-//W3C//DTD SVG 20010904//EN"
 "http://www.w3.org/TR/2001/REC-SVG-20010904/DTD/svg10.dtd">
<svg version="1.0" xmlns="http://www.w3.org/2000/svg"
 width="500.000000pt" height="500.000000pt" viewBox="0 0 500.000000 500.000000"
 preserveAspectRatio="xMidYMid meet">

<g transform="translate(0.000000,500.000000) scale(0.100000,-0.100000)"
fill="#864486" stroke="none">
<path d="M3296 4693 c-10 -66 -7 -103 9 -103 8 0 15 -4 15 -10 0 -5 20 -10 45
-10 l45 0 0 74 c0 82 -3 86 -70 86 -36 0 -38 -2 -44 -37z"/>
<path d="M2070 4663 c-19 -3 -37 -8 -40 -12 -6 -9 -109 -28 -225 -42 -49 -5
-92 -14 -95 -18 -3 -4 -27 -14 -55 -21 -27 -7 -60 -23 -72 -34 -47 -44 -61
-53 -119 -76 -32 -13 -65 -30 -72 -37 -7 -7 -22 -13 -33 -13 -10 0 -27 -8 -37
-18 -10 -10 -35 -26 -55 -36 -21 -9 -40 -23 -43 -31 -3 -7 -24 -21 -47 -31
-23 -10 -50 -29 -60 -41 -10 -13 -23 -23 -28 -23 -5 0 -36 -26 -68 -57 -32
-32 -71 -69 -86 -81 -30 -25 -55 -65 -55 -87 0 -7 -6 -15 -13 -18 -8 -3 -22
-21 -31 -41 -9 -20 -23 -36 -31 -36 -8 0 -15 -5 -15 -11 0 -12 -25 -39 -37
-39 -4 0 -22 -17 -40 -37 l-33 -37 0 72 c0 81 -9 92 -78 92 -38 0 -40 -2 -46
-37 -16 -101 4 -133 84 -133 39 0 40 -1 29 -22 -7 -13 -15 -25 -19 -28 -3 -3
-13 -21 -23 -41 -9 -19 -27 -48 -41 -65 -14 -16 -31 -36 -39 -44 -15 -18 -41
-74 -52 -110 -4 -14 -12 -28 -16 -31 -5 -3 -17 -41 -26 -85 -9 -43 -21 -82
-26 -85 -11 -8 -33 -115 -42 -206 -4 -40 -10 -73 -14 -73 -4 0 -15 -35 -25
-77 -10 -43 -23 -81 -28 -84 -17 -10 -33 -510 -21 -625 6 -53 15 -99 20 -103
6 -3 18 -51 29 -106 10 -55 21 -102 25 -105 3 -3 9 -22 13 -43 4 -21 9 -44 12
-51 4 -10 -8 -12 -49 -8 l-54 4 -6 -38 c-11 -67 -8 -104 8 -104 8 0 15 -4 15
-10 0 -5 20 -10 45 -10 l45 0 1 63 c1 56 2 59 11 32 6 -16 19 -38 30 -49 10
-11 18 -23 18 -27 0 -5 8 -16 18 -26 10 -10 27 -38 36 -63 10 -25 21 -47 24
-50 11 -8 42 -79 42 -95 0 -8 4 -15 8 -15 5 0 19 -33 31 -74 13 -41 29 -77 37
-80 8 -3 14 -11 14 -17 0 -7 15 -27 32 -44 18 -17 47 -49 65 -70 l31 -40 -43
-3 c-41 -3 -43 -5 -49 -40 -10 -65 -7 -102 9 -102 8 0 15 -4 15 -10 0 -5 20
-10 45 -10 l45 0 0 67 0 66 43 -41 c69 -68 98 -92 107 -92 5 0 15 -6 23 -14 7
-8 35 -23 60 -35 26 -12 47 -26 47 -30 0 -5 16 -15 35 -21 19 -6 38 -17 42
-23 5 -7 25 -21 46 -32 20 -11 37 -23 37 -27 0 -4 13 -14 30 -23 16 -8 37 -24
47 -34 10 -10 36 -25 58 -32 22 -8 42 -16 45 -20 3 -3 26 -15 52 -28 25 -12
49 -28 52 -36 3 -8 11 -15 19 -15 7 0 22 -8 33 -18 21 -18 102 -52 147 -59 15
-3 27 -9 27 -13 0 -4 21 -11 46 -15 25 -3 53 -14 63 -24 43 -43 97 -49 501
-57 383 -7 387 -7 480 17 52 12 101 29 108 36 7 7 20 13 28 13 8 0 22 8 32 17
9 10 42 29 72 43 30 14 58 29 61 33 3 5 35 12 70 17 130 17 159 23 159 30 0 5
24 11 53 15 63 8 160 34 167 45 3 4 22 15 43 23 20 9 37 21 37 26 0 6 6 11 14
11 8 0 59 45 113 100 54 55 103 100 108 100 6 0 16 9 23 20 7 11 17 20 23 20
11 0 23 10 102 88 77 75 107 111 107 126 0 9 3 16 8 16 4 0 16 20 27 45 11 25
23 45 26 45 4 0 16 18 28 41 12 22 30 50 41 61 11 12 20 27 20 34 0 6 11 19
25 28 14 9 25 23 25 31 0 7 8 20 18 27 9 7 26 31 37 53 11 22 25 45 31 51 6 7
19 38 29 71 10 32 21 60 25 63 3 3 15 46 25 95 10 50 22 93 27 96 5 3 18 43
29 89 11 47 23 87 28 90 12 8 41 100 41 132 0 15 4 28 9 28 4 0 11 64 15 143
3 78 9 195 12 260 6 113 -7 237 -26 237 -4 0 -15 21 -25 47 -10 27 -24 54 -31
60 -12 12 -44 135 -44 167 0 9 -4 16 -10 16 -5 0 -10 11 -10 25 0 27 -28 117
-39 125 -4 3 -18 28 -31 55 -13 28 -30 54 -37 58 -7 4 -13 14 -13 21 0 7 -8
21 -18 32 -10 10 -29 49 -42 87 -13 37 -27 67 -31 67 -4 0 -15 25 -24 55 -10
30 -21 55 -25 55 -4 0 -18 21 -30 47 -12 26 -57 82 -102 127 -108 109 -118
120 -118 133 0 7 -7 16 -16 21 -8 5 -21 20 -28 33 -6 13 -24 30 -39 37 -15 7
-27 17 -27 23 0 5 -6 9 -13 9 -8 0 -33 18 -58 40 -24 22 -49 40 -56 40 -7 0
-20 9 -30 19 -10 11 -35 22 -56 26 -21 4 -44 13 -50 20 -7 7 -27 20 -44 28
-17 9 -38 23 -46 31 -8 8 -30 21 -51 30 -20 8 -36 19 -36 24 0 6 -16 13 -36
17 -45 8 -106 36 -117 53 -4 6 -15 12 -22 12 -8 0 -23 8 -33 18 -9 9 -42 26
-72 36 -30 11 -57 23 -60 27 -3 5 -73 18 -155 30 -83 12 -153 27 -157 33 -7
11 -699 19 -778 9z m442 -73 c2 -5 46 -12 98 -15 114 -8 200 -23 200 -36 0 -5
9 -9 20 -9 33 0 175 -31 180 -40 6 -9 169 -50 199 -50 12 0 21 -4 21 -10 0 -5
18 -10 40 -10 41 0 191 -29 200 -39 3 -3 25 -17 49 -30 24 -13 51 -31 60 -40
9 -9 28 -24 41 -34 67 -47 68 -48 38 -41 -35 8 -78 -2 -78 -19 0 -6 -7 -21
-16 -32 -14 -19 -15 -19 -52 0 -20 11 -43 26 -50 32 -7 7 -20 13 -29 13 -16 0
-70 28 -90 46 -6 6 -32 18 -57 25 -26 7 -46 16 -46 19 0 4 -23 13 -50 20 -28
8 -58 21 -68 30 -26 24 -87 50 -116 50 -14 0 -26 5 -26 10 0 6 -13 10 -30 10
-41 0 -122 28 -138 48 -13 17 -16 17 -398 38 -101 5 -168 3 -288 -11 -86 -10
-156 -22 -156 -27 0 -4 -39 -8 -87 -8 -96 0 -99 10 -9 30 32 8 64 20 71 27 17
16 79 29 183 38 45 4 82 11 82 16 0 12 297 12 302 -1z m-899 -141 c-18 -5 -33
-13 -33 -18 0 -5 -8 -11 -17 -14 -10 -2 -26 -8 -36 -12 -15 -6 -14 -3 5 17 27
30 43 36 83 36 l30 0 -32 -9z m-237 -198 c-13 -21 -70 -81 -77 -81 -5 0 2 10
14 23 12 13 30 33 39 45 17 21 35 31 24 13z m2360 -46 c16 -13 37 -31 47 -40
9 -8 21 -15 25 -15 5 0 17 -9 27 -20 10 -11 23 -20 29 -21 10 0 96 -102 96
-113 0 -7 23 -35 63 -76 15 -15 27 -33 27 -39 0 -6 11 -18 25 -27 14 -9 25
-22 25 -30 0 -7 9 -19 19 -26 10 -7 29 -34 42 -58 13 -25 28 -49 34 -55 6 -5
17 -27 24 -49 7 -21 33 -58 57 -82 24 -23 44 -47 44 -52 0 -4 8 -17 18 -28 10
-10 29 -46 42 -79 13 -33 29 -65 36 -72 6 -6 17 -39 25 -72 7 -34 16 -61 20
-61 3 0 16 -55 29 -122 12 -68 26 -125 29 -128 9 -7 41 -134 41 -163 0 -14 5
-27 10 -29 6 -2 16 -59 22 -128 12 -127 0 -287 -23 -300 -9 -6 -25 -104 -36
-227 -3 -40 -10 -73 -14 -73 -5 0 -9 -15 -9 -32 0 -18 -4 -39 -9 -46 -5 -8 -6
75 -3 190 2 111 5 331 6 488 0 245 -2 293 -17 343 -10 31 -21 57 -26 57 -10 0
-27 41 -36 88 -4 17 -11 32 -16 32 -5 0 -9 13 -9 28 0 50 -38 181 -59 204 -12
12 -23 30 -27 40 -3 10 -9 18 -13 18 -4 0 -15 23 -25 50 -10 28 -24 54 -30 58
-7 4 -16 14 -19 22 -15 33 -58 90 -94 126 -13 12 -23 26 -23 32 0 6 -9 17 -19
24 -11 8 -27 34 -37 58 -21 52 -21 52 -155 189 -59 60 -110 118 -113 128 -4
11 -27 41 -52 67 -49 49 -47 63 2 21z m-2628 -205 c-134 -129 -148 -141 -190
-156 -10 -3 -18 -9 -18 -13 0 -4 -8 -16 -17 -27 -10 -11 -27 -35 -37 -54 -11
-19 -27 -43 -38 -53 -10 -10 -18 -22 -18 -27 0 -6 -8 -18 -18 -28 -24 -24 -62
-118 -62 -153 0 -16 -4 -29 -10 -29 -5 0 -10 -12 -10 -27 0 -34 -31 -133 -42
-133 -4 0 -8 -6 -8 -14 0 -23 -38 -105 -60 -128 -11 -12 -20 -27 -20 -34 0 -7
-10 -23 -22 -34 -21 -19 -24 -33 -29 -158 -7 -139 -14 -182 -30 -182 -5 0 -9
-31 -9 -70 0 -40 4 -70 10 -70 6 0 10 -28 10 -65 0 -36 -4 -65 -8 -65 -10 0
-42 -93 -42 -120 0 -10 -6 -20 -12 -23 -18 -5 -17 -145 1 -156 8 -5 18 -53 26
-127 7 -67 18 -120 24 -122 6 -2 11 -10 11 -19 0 -29 -24 -6 -39 38 -9 24 -19
47 -24 50 -4 3 -12 63 -17 134 -11 149 -19 195 -31 195 -13 0 -11 198 2 202 6
2 12 57 15 143 5 141 19 235 34 235 5 0 16 34 25 75 9 41 21 75 26 75 5 0 9 8
9 18 0 34 43 156 62 176 10 11 18 25 18 32 0 7 6 17 13 21 15 9 47 69 47 89 0
7 6 19 14 26 7 8 22 49 31 91 10 42 22 77 26 77 4 0 18 21 31 48 13 26 29 53
36 60 6 7 12 20 12 28 0 14 19 53 30 64 3 3 17 21 30 40 14 19 35 44 48 55 14
11 40 34 60 51 69 62 102 84 125 84 7 0 22 8 33 18 22 18 74 50 87 51 4 1 -34
-39 -85 -89z m3370 -2147 c-6 -29 -14 -53 -18 -53 -4 0 -15 -23 -24 -50 -15
-44 -56 -105 -56 -81 0 17 22 71 30 71 4 0 15 25 25 55 9 30 20 55 25 55 4 0
10 14 14 32 3 17 8 29 10 27 2 -2 -1 -28 -6 -56z m-3868 -188 c5 -7 15 -39 22
-71 6 -32 14 -61 18 -64 4 -3 9 -17 12 -32 8 -41 -14 -24 -36 28 -10 25 -24
51 -31 58 -7 6 -17 33 -22 58 -9 41 -8 45 8 41 10 -3 23 -11 29 -18z m3688
-169 c-7 -8 -15 -12 -17 -11 -5 6 10 25 20 25 5 0 4 -6 -3 -14z m-32 -58 c-8
-18 -19 -34 -25 -36 -6 -2 -11 -9 -11 -16 0 -7 -7 -21 -15 -32 -14 -17 -14
-17 -3 11 6 17 17 35 22 40 6 6 17 22 23 38 18 38 25 34 9 -5z m-66 -118 c0
-5 -4 -10 -10 -10 -5 0 -10 5 -10 10 0 6 5 10 10 10 6 0 10 -4 10 -10z m-3287
-164 c29 -35 101 -108 149 -151 11 -9 41 -26 67 -37 25 -12 48 -24 51 -28 3
-4 26 -14 52 -23 48 -16 66 -27 96 -60 21 -24 84 -86 114 -113 13 -11 34 -26
46 -33 38 -20 19 -23 -34 -5 -26 9 -56 27 -67 40 -10 13 -25 24 -33 24 -8 0
-14 4 -14 9 0 5 -12 12 -27 16 -28 7 -115 74 -146 113 -10 12 -23 22 -28 22
-6 0 -17 7 -25 15 -9 8 -23 15 -33 15 -9 0 -35 18 -57 40 -21 22 -51 52 -66
67 -16 14 -28 32 -28 40 0 7 -4 13 -8 13 -4 0 -16 15 -27 33 -10 17 -24 36
-32 40 -7 4 -13 13 -13 19 0 6 -6 19 -12 28 -21 26 40 -41 75 -84z m2917 -191
c-7 -8 -17 -15 -22 -15 -5 0 -15 -6 -23 -12 -7 -7 -28 -24 -46 -38 -18 -14
-50 -41 -70 -60 -36 -33 -59 -52 -104 -85 -11 -8 -28 -15 -37 -15 -10 0 -18
-4 -18 -9 0 -5 -33 -20 -72 -32 -40 -13 -75 -26 -78 -29 -6 -8 -112 -27 -200
-36 -36 -4 -67 -10 -70 -13 -3 -4 -27 -18 -54 -31 -27 -14 -57 -32 -67 -41 -9
-9 -35 -20 -58 -24 -23 -4 -41 -11 -41 -16 0 -5 -12 -11 -27 -15 -47 -10 -113
-36 -113 -44 0 -18 -131 -32 -222 -24 -51 4 -84 10 -73 12 11 2 22 8 26 13 3
5 50 13 105 19 101 10 148 23 173 48 8 8 27 19 43 24 15 6 28 14 28 19 0 5 14
9 31 9 43 0 105 19 127 40 10 9 35 23 55 29 21 7 43 18 50 24 6 7 32 23 57 36
25 14 47 27 50 31 7 9 98 31 153 37 26 3 47 9 47 14 0 5 11 9 24 9 35 0 89 26
104 49 7 12 18 21 25 21 7 0 22 8 33 18 21 19 57 37 94 48 14 4 27 11 31 15 3
5 34 15 70 23 84 18 83 18 69 1z m-2115 -383 c-3 -3 -11 0 -18 7 -9 10 -8 11
6 5 10 -3 15 -9 12 -12z m164 -19 c8 -11 101 -43 124 -43 9 0 17 -4 17 -10 0
-5 13 -10 28 -10 44 0 256 -40 262 -50 3 -4 16 -10 30 -13 14 -3 -31 -3 -100
0 -69 3 -126 9 -128 14 -2 5 -14 9 -26 9 -24 0 -127 39 -136 51 -7 9 -73 26
-137 34 -29 4 -53 11 -53 15 0 5 -8 11 -17 14 -10 3 15 3 56 1 41 -2 77 -8 80
-12z"/>
<path d="M1226 4613 c-10 -66 -7 -103 9 -103 8 0 15 -4 15 -10 0 -5 20 -10 45
-10 l45 0 0 74 c0 82 -3 86 -70 86 -36 0 -38 -2 -44 -37z"/>
<path d="M4486 3663 c-10 -66 -7 -103 9 -103 8 0 15 -4 15 -10 0 -5 20 -10 45
-10 l45 0 0 74 c0 82 -3 86 -70 86 -36 0 -38 -2 -44 -37z"/>
<path d="M266 3203 c-10 -66 -7 -103 9 -103 8 0 15 -4 15 -10 0 -5 20 -10 45
-10 l45 0 0 74 c0 82 -3 86 -70 86 -36 0 -38 -2 -44 -37z"/>
<path d="M4406 1333 c-10 -66 -7 -103 9 -103 8 0 15 -4 15 -10 0 -5 20 -10 45
-10 l45 0 0 74 c0 82 -3 86 -70 86 -36 0 -38 -2 -44 -37z"/>
<path d="M1246 583 c-10 -66 -7 -103 9 -103 8 0 15 -4 15 -10 0 -5 20 -10 45
-10 l45 0 0 74 c0 82 -3 86 -70 86 -36 0 -38 -2 -44 -37z"/>
<path d="M1686 383 c-10 -66 -7 -103 9 -103 8 0 15 -4 15 -10 0 -5 20 -10 45
-10 l45 0 0 74 c0 82 -3 86 -70 86 -36 0 -38 -2 -44 -37z"/>
<path d="M2446 213 c-10 -66 -7 -103 9 -103 8 0 15 -4 15 -10 0 -5 20 -10 45
-10 l45 0 0 74 c0 82 -3 86 -70 86 -36 0 -38 -2 -44 -37z"/>
</g>
</svg>
